<svg xmlns="http://www.w3.org/2000/svg" viewBox="0 0 347.12 65.25"><defs><style>.cls-1{fill:#fff;}</style></defs><g id="レイヤー_2" data-name="レイヤー 2"><g id="レイヤー_2-2" data-name="レイヤー 2"><path class="cls-1" d="M108.69,30.17a10.43,10.43,0,0,0-2.63.34V27.3a14.23,14.23,0,0,0,2.64.28l35,0c-1,11.71-6.62,17.75-18.66,20C124,54.44,119.2,59.11,110.39,62a7.42,7.42,0,0,0-2.12.93l-1.12-2.82c1.55.09,4.19-1,7.24-2.92a14,14,0,0,0,6.72-12.28V38.07a14.21,14.21,0,0,0-.28-2.63h4.7a13.89,13.89,0,0,0-.28,2.64v7c8.05-2,12.61-7,13.6-14.92Z"/><path class="cls-1" d="M154.89,45.07c4.52-.38,13.61-4.25,18.63-7.87,5-3.4,11.29-9.65,12.57-12.62l3.76,3.25c-.42.38-1,1-1.88,1.83a60.33,60.33,0,0,1-9.83,8.85v22a13.8,13.8,0,0,0,.28,2.63h-4.75a10.53,10.53,0,0,0,.33-2.63V41a66.08,66.08,0,0,1-15.81,5.93,9.19,9.19,0,0,0-2.3.81Z"/><path class="cls-1" d="M222.89,59h15.48a20.57,20.57,0,0,0,3.1-.28v2.91l-.52,0-.66-.09c-.51,0-1.13-.09-1.93-.09l-35.43,0a21.15,21.15,0,0,0-3.14.23V58.69a20.41,20.41,0,0,0,3.15.27h15.25V30.07H205.66a16.41,16.41,0,0,0-1.8.11l-.89.14-.42.05V27.44a18.42,18.42,0,0,0,3.11.23h30.15a19.75,19.75,0,0,0,3.16-.24v2.93l-.24-.05-.93-.1a12.82,12.82,0,0,0-2-.14H222.88Z"/><path class="cls-1" d="M290,29a22.68,22.68,0,0,1-5.17,8.81,32,32,0,0,0,7.77,3.29l2.45.47-2.31,3.91-1.89-.9a33.73,33.73,0,0,1-8.46-4.6,33.34,33.34,0,0,1-9.46,4.8l-1.36.84-1.37-2.21a41.06,41.06,0,0,1-2.49,4.75L267,50l-2.21-1,.9-1.59a55.08,55.08,0,0,0,1.54-6.26h-3.48V61.91c0,1.78-.75,2.68-2.26,2.68a23.89,23.89,0,0,1-5.08-.84l-2.12-.29L254,61.11c2.33.24,3.7.32,5,.33.85,0,1-.19,1-1V46.8a40.25,40.25,0,0,1-7.33,10.45l-1.18,1.65-2-1.75,1.5-1.4a48,48,0,0,0,7.38-14.69H254a19.93,19.93,0,0,0-3.11.23V38.43a21.83,21.83,0,0,0,3.11.24h8.23l-.33-.47a69.08,69.08,0,0,0-6.78-6.35l-1.5-.9L255.39,29l1.22,1.08c1.13.66,3.25,2,4.14,2.59a36,36,0,0,0,4.38-6.27H254.92a20.25,20.25,0,0,0-3.16.24V23.81a22,22,0,0,0,3.16.22H266a27.09,27.09,0,0,0,4.75-.18v1.88A73.36,73.36,0,0,1,262.68,34l.56.43.53.32.93.67,1.66,1-2.26,2.32h3.1a22,22,0,0,0,4.19-.19V40.3c-.42,1.23-.84,2.26-1.17,3.07l1.83-.39a31.39,31.39,0,0,0,7.9-5,23.65,23.65,0,0,1-4.71-7,48.47,48.47,0,0,1-3.38,3.67l-1.31,1.37-1.84-1.6,1.41-1.23a30.64,30.64,0,0,0,6-10.54l.37-1.73L281,22l-1,1.79a30,30,0,0,1-1.59,2.83h12.65a21.42,21.42,0,0,0,3.11-.24v2.87l-.51,0-.67-.1c-.52-.05-1.13-.09-1.92-.09ZM273,50.37a19.4,19.4,0,0,0-3.05.24V47.74A20.78,20.78,0,0,0,273,48h5.32v-.43l.05-.2c0-.51.14-1.73.13-2.39l-.09-2.35,4.47.13L282.55,45c0,.71-.05,1.24-.1,2.31l-.09.7h6.12a23.13,23.13,0,0,0,4.19-.2v1.79c-.55,7.72-.84,10.26-1.49,12.37-.57,1.84-1.51,2.69-3,2.69a24,24,0,0,1-6-1.12l-2.26-.38-.24-2.31a47.85,47.85,0,0,0,5.93.42c1.23,0,1.55-.29,1.89-1.45a44.64,44.64,0,0,0,1.17-9.42H282c-1.41,6.68-4.74,10.69-11.61,13.89l-1.79,1L267.21,63l2-.7c5-3.11,7.86-6.92,8.75-11.91Zm3.66-21.22A23.08,23.08,0,0,0,282,35.83a20.67,20.67,0,0,0,3.62-6.78h-8.8Z"/><path class="cls-1" d="M323.23,24.51a16.29,16.29,0,0,0-.1-1.74l-.14-.94,0-.42h4.8a17.57,17.57,0,0,0-.28,3.1v3.15h13.88a16.11,16.11,0,0,0,3.11-.29v2.92a20.94,20.94,0,0,0-3.11-.24l-30.3,0V41c0,9.37-1.74,15.67-6,21.92l-.84,1.75L302,63.34l1.14-1.5c2.57-6,3.61-11.91,3.61-20.85V31.06a19.28,19.28,0,0,0-.29-3.58,30.51,30.51,0,0,0,3.87.19h12.93Zm14.69,23.76a26.47,26.47,0,0,0,3.87-.19A20.42,20.42,0,0,0,341.5,52v9a17.09,17.09,0,0,0,.27,3,30.18,30.18,0,0,0-3.1-.18H316.24a29.73,29.73,0,0,0-3.25.19,19.9,19.9,0,0,0,.29-3.9V51.48a17.38,17.38,0,0,0-.29-3.39,32.9,32.9,0,0,0,3.91.19h7.44V34.67c0-.75-.05-1.08-.14-2.29l-.1-.81h4.8a19.88,19.88,0,0,0-.28,3.1V38.3h12a19.67,19.67,0,0,0,3.09-.23v2.87l-.51,0-.65-.09a19.11,19.11,0,0,0-1.93-.1h-12v7.57ZM317.56,61.5h19.71V50.67H317.55Z"/><path class="cls-1" d="M110.34,11a3.7,3.7,0,0,0,1.39.31c1.06,0,1.89-.4,1.89-2.41a5.4,5.4,0,0,0,0-.7,16.32,16.32,0,0,1-6.51,2.94c-.09,0-.24-.23-.24-.36a.1.1,0,0,1,.07-.11,14.36,14.36,0,0,0,6.44-3.56,6,6,0,0,0-.37-.87A13.82,13.82,0,0,1,107.38,9h0c-.07,0-.22-.22-.22-.36a.09.09,0,0,1,.06-.09,12.76,12.76,0,0,0,5.28-3,3.77,3.77,0,0,0-.56-.57,14.59,14.59,0,0,1-4.26,1.73c-.09,0-.23-.24-.23-.37s0-.08,0-.09a10.8,10.8,0,0,0,4.46-2.39h-.43c-.78,0-2.06,0-2.37.08h0c-.09,0-.11-.05-.11-.1a.5.5,0,0,1,0-.12.37.37,0,0,0,0-.15.35.35,0,0,0,0-.16.34.34,0,0,1,0-.12s0-.09.11-.09h0c.37,0,1.56.09,2.39.09h2.59a20,20,0,0,0,2.44-.1h0c.06,0,.07,0,.07.08a.78.78,0,0,1,0,.14.58.58,0,0,0,0,.14.76.76,0,0,0,0,.16.69.69,0,0,1,0,.13c0,.06,0,.1-.1.1h0c-.33,0-1.65-.08-2.43-.08h-.75a6.69,6.69,0,0,1-.76.65,5.36,5.36,0,0,1,1.55,2.19,9,9,0,0,0,2.46-2c0-.07.09-.09.13-.09a.27.27,0,0,1,.16.07,1.69,1.69,0,0,0,.79.43c.09,0,.14.08.14.14,0,.26-2.07,1.38-3.51,1.89A9,9,0,0,0,118.87,10a.1.1,0,0,1,.09.1.17.17,0,0,1-.09.15,1.88,1.88,0,0,0-.9.67.15.15,0,0,1-.14.07,7.64,7.64,0,0,1-3.3-3c0,.26.06.52.08.78,0,.09,0,.17,0,.26,0,2.3-1.05,3-2.54,3a3.94,3.94,0,0,1-1.93-.49.14.14,0,0,1-.05-.13c0-.16.11-.4.22-.4Zm8-8.2a7.35,7.35,0,0,0,0,.85.45.45,0,0,1,0,.11c0,.07,0,.1-.08.1a.58.58,0,0,1-.19,0,1.6,1.6,0,0,0-.29,0,1.47,1.47,0,0,0-.32,0,.31.31,0,0,1-.14,0c-.07,0-.09,0-.09-.1s0-.09,0-.15,0-.17,0-.92V2h-8.84V2.8c0,.26,0,.65,0,.87v.1c0,.08,0,.14-.1.14h-.1a1.06,1.06,0,0,0-.35,0,.81.81,0,0,0-.29,0l-.15,0c-.07,0-.1,0-.1-.12V3.72a7.69,7.69,0,0,0,.06-.91v-.5c0-.25,0-.48,0-.73V1.49c0-.09,0-.12.12-.12h0c.65,0,1.27,0,2.07,0h2.59V1.22c0-.26,0-.65,0-.92v0c0-.12,0-.13.2-.13a4,4,0,0,0,.82-.09l.12,0c.07,0,.09,0,.09.12a.4.4,0,0,1,0,.13,7.27,7.27,0,0,0,0,1v.18h2.7c.8,0,1.52,0,2.12-.09h0c.09,0,.13,0,.13.16s0,.05,0,.09a5.63,5.63,0,0,0,0,.75Z"/><path class="cls-1" d="M128.56,10.88a2.28,2.28,0,0,0,.85.18c.69,0,.86-.44,1-.92a30.24,30.24,0,0,0,.32-5h-1.32c-.11,3.05-.65,5-2.2,6.82a.15.15,0,0,1-.09,0c-.13,0-.34-.17-.34-.28a.08.08,0,0,1,0,0c1.55-2.21,1.68-5,1.72-9-.55,0-1.13,0-1.35.07h0c-.07,0-.09,0-.09-.08a.52.52,0,0,1,0-.11.8.8,0,0,0,0-.15.76.76,0,0,0,0-.16.59.59,0,0,1,0-.13c0-.05,0-.07.09-.07h0a12.18,12.18,0,0,0,1.69.09h.28v-.6c0-.3,0-.88,0-1.19v0c0-.11,0-.13.11-.13h.17a1.41,1.41,0,0,0,.57-.11.3.3,0,0,1,.12,0c.07,0,.09,0,.09.11a.53.53,0,0,1,0,.16c0,.3,0,.92,0,1.24v.59h.51a15.65,15.65,0,0,0,1.6-.11h0a.07.07,0,0,1,.08.08.61.61,0,0,1,0,.13.71.71,0,0,0,0,.15.71.71,0,0,0,0,.16.53.53,0,0,1,0,.12.08.08,0,0,1-.08.08h0c-.3,0-1.09-.07-1.58-.07h-1.09l-.06,1.87h.89a11.44,11.44,0,0,0,1.26-.06h0a.08.08,0,0,1,.09.09V4.7c0,.18,0,.77,0,1a34.45,34.45,0,0,1-.33,4.55c-.23,1.25-.92,1.48-1.6,1.48s-1.39-.28-1.39-.48.13-.4.24-.4Zm10.1-3.35c-.23,0-1.84-.07-2.19-.07H136A5.18,5.18,0,0,0,139.1,11c.07,0,.09.07.09.1a.13.13,0,0,1-.07.13,1.61,1.61,0,0,0-.79.6.19.19,0,0,1-.16.1,5.57,5.57,0,0,1-2.44-3.81c-.45,2.14-1.91,3.26-4.06,4h0c-.12,0-.26-.23-.26-.36a.09.09,0,0,1,0-.08,4.9,4.9,0,0,0,3.47-4.21h-.5c-.38,0-1.95,0-2.17.07h-.05c-.06,0-.09,0-.09-.08a.53.53,0,0,1,0-.12.77.77,0,0,0,0-.15.63.63,0,0,0,0-.16.65.65,0,0,1,0-.13.08.08,0,0,1,.09-.08l.06,0c.28.06,1.84.07,2.18.07h.53c0-.4,0-.92,0-1.4,0-.27,0-.53,0-.75h-.9a5.51,5.51,0,0,1-1.54,1.83c-.1,0-.32-.16-.32-.26a.08.08,0,0,1,0,0,7.12,7.12,0,0,0,1.5-3.43c0-.09.06-.14.12-.14a.24.24,0,0,1,.13,0,1.22,1.22,0,0,0,.61.14h.19c.11,0,.15,0,.15.1a4.48,4.48,0,0,1-.55,1.23h1.72a20.07,20.07,0,0,0,2.09-.09h0c.06,0,.08,0,.08.08a.61.61,0,0,1,0,.13.71.71,0,0,0,0,.15.57.57,0,0,0,0,.14,1,1,0,0,1,0,.12s0,.08-.09.08h0c-.29,0-1.34-.07-2-.07H136c0,.64,0,1.45-.07,2.15h.57c.35,0,2,0,2.22-.09h0c.07,0,.09,0,.09.07a.31.31,0,0,1,0,.13.47.47,0,0,0,0,.17.32.32,0,0,0,0,.14.3.3,0,0,1,0,.12s0,.09-.1.09Zm0-5.19c-.27,0-1.42-.06-2.14-.06h-2.73a7.12,7.12,0,0,1-1.71,2c-.13,0-.34-.16-.34-.27s0,0,0-.06A8.12,8.12,0,0,0,133.43.18c0-.1,0-.15.1-.15a.5.5,0,0,1,.15.05,1.92,1.92,0,0,0,.77.14h.11c.13,0,.15,0,.15.1a5.28,5.28,0,0,1-.65,1.4h2.41a17.09,17.09,0,0,0,2.15-.09h0c.07,0,.08,0,.08.07a.31.31,0,0,1,0,.13.66.66,0,0,0,0,.15.71.71,0,0,0,0,.16.26.26,0,0,1,0,.11.08.08,0,0,1-.09.09Z"/><path class="cls-1" d="M149.55,1.36a35.88,35.88,0,0,0-.6,6.55,22.91,22.91,0,0,0,.18,3.1s0,.07,0,.1,0,.13-.14.13h-.3a2.36,2.36,0,0,0-.48,0h-.11c-.11,0-.13-.06-.14-.24-.07-.85-.1-1.7-.1-2.56a48.84,48.84,0,0,1,.55-7.07c0-.11,0-.15.12-.15h.23a2.7,2.7,0,0,0,.58-.09h.1c.07,0,.1,0,.1.12Zm2.57,5.69a2.3,2.3,0,0,0-.23,1c0,.61.45,1.79,3.47,1.79a15.17,15.17,0,0,0,2.73-.32l.15,0s0,0,0,0a.29.29,0,0,1,0,.14c-.06.24-.27.57-.3.81s0,.25-.28.29a20.16,20.16,0,0,1-2.22.16c-2.9,0-4.23-1.17-4.23-2.64,0-.42.22-1.47.53-1.47s.37.12.37.21ZM157.62,3c-.33,0-1.31-.08-2-.08h-2c-.53,0-1.54,0-1.94.08h0c-.08,0-.11,0-.11-.08a.61.61,0,0,1,0-.11,1,1,0,0,0,0-.2.92.92,0,0,0,0-.19.61.61,0,0,1,0-.13s0-.08.09-.08h0c.43,0,1.26.09,2,.09h2c.72,0,1.62,0,2-.09h0c.07,0,.09,0,.09.08a.79.79,0,0,1,0,.13.44.44,0,0,0,0,.18.62.62,0,0,0,0,.2.5.5,0,0,1,0,.12s0,.08-.09.08Z"/><path class="cls-1" d="M176.06,8.16c0,.49-1.59,1.71-2.41,2.18a15,15,0,0,0,4.33.53l.63,0c.08,0,.12,0,.12.1a.2.2,0,0,1-.08.14,2,2,0,0,0-.66.72c-.06.11-.1.13-.26.13a11.46,11.46,0,0,1-5-1.12,22,22,0,0,1-6,1.27c-.12,0-.23-.24-.23-.38s0-.12.07-.12a18,18,0,0,0,5.41-1.25,5.87,5.87,0,0,1-1.56-1.65,14,14,0,0,1-3.27,1.76c-.09,0-.26-.22-.26-.32a.06.06,0,0,1,0-.05,9.82,9.82,0,0,0,4.05-3.15.92.92,0,0,1-.8-1v-.6a5.09,5.09,0,0,0,0-.65s0,0,0-.07,0-.11.17-.11h.14a1.34,1.34,0,0,0,.48-.08l.13,0c.08,0,.11,0,.11.1s0,.08,0,.12c0,.21,0,.45,0,.67v.55c0,.46.48.49,1.55.49,1.75,0,2-.13,2.15-1.25,0,0,.08-.06.17-.06s.36.06.35.14A4.06,4.06,0,0,1,175,6.28c-.25.69-1,.74-2.25.74h-.66a8.86,8.86,0,0,1-.72.79h2.66a12.34,12.34,0,0,0,1.77-.09l.09,0c.12,0,.13.06.13.16Zm2.09-3.63a5.6,5.6,0,0,0,0,.74s0,.08,0,.11,0,.11-.09.11a.5.5,0,0,1-.19,0,1.19,1.19,0,0,0-.29,0,.79.79,0,0,0-.32.06.37.37,0,0,1-.13,0c-.08,0-.11,0-.11-.13s0-.09,0-.14c0-.22,0-.52,0-.75V3.91H168v.64c0,.27,0,.54,0,.79,0,0,0,.1,0,.14s0,.1-.09.1a.3.3,0,0,1-.12,0,1.43,1.43,0,0,0-.36-.06,1.11,1.11,0,0,0-.28,0l-.18,0s-.07,0-.07-.1,0-.05,0-.09c0-.22,0-.55,0-.8V4.31c0-.29,0-.57,0-.76,0,0,0-.08,0-.1s0-.12.13-.12h.05c.64,0,1.19,0,2,0h.45A3.46,3.46,0,0,0,168.46,2s0,0,0,0,.22-.25.31-.25,1.9.87,1.9,1.13c0,.07,0,.12-.15.16a1.35,1.35,0,0,0-.57.41h2.59a3.63,3.63,0,0,0-1.13-1.49.06.06,0,0,1,0,0c0-.08.2-.22.29-.22s1.92,1,1.92,1.21c0,.05,0,.09-.15.13a1.31,1.31,0,0,0-.64.41h1.63a7,7,0,0,0,1.08-1.89.16.16,0,0,1,.13-.13.36.36,0,0,1,.15.06,1.73,1.73,0,0,0,.91.2c.13,0,.19,0,.19.13A7.71,7.71,0,0,1,175,3.38h.92a19.65,19.65,0,0,0,2.1-.1h.05c.08,0,.11,0,.11.11a.47.47,0,0,1,0,.15c0,.22,0,.41,0,.7ZM177.32,1a79.61,79.61,0,0,1-10.12.62c-.07,0-.15-.24-.15-.38s0-.11,0-.11A41.84,41.84,0,0,0,176.44,0l.15,0c.06,0,.11,0,.15.12a1.88,1.88,0,0,0,.61.62.19.19,0,0,1,.12.17C177.47,1,177.41,1,177.32,1Zm-7.66,3.84a4.74,4.74,0,0,1-1.59,2.72s-.09,0-.13-.13a1.44,1.44,0,0,0-.62-.54c-.07,0-.1-.08-.1-.13a.14.14,0,0,1,.1-.13,3.64,3.64,0,0,0,1.89-1.93.12.12,0,0,1,.1,0c.13,0,.35.08.35.17Zm1.18,3.44-.1.09A5.69,5.69,0,0,0,172.68,10a8.18,8.18,0,0,0,2-1.64Zm2.59-2.48a.14.14,0,0,1-.1-.06,4.57,4.57,0,0,0-1.7-1.25s0,0,0,0,.11-.28.19-.28S174,4.77,174,5a.2.2,0,0,1-.09.15,1.1,1.1,0,0,0-.4.53C173.52,5.8,173.47,5.84,173.43,5.84Zm4.28.9a1.54,1.54,0,0,0-.64.54c0,.07-.07.09-.11.09s-.08,0-.12-.12a7,7,0,0,0-1.54-2.37s0,0,0,0a.43.43,0,0,1,.29-.25,10,10,0,0,1,2.28,2C177.86,6.66,177.8,6.71,177.71,6.74Z"/><path class="cls-1" d="M196.66,11.26c0,.11,0,.18-.21.2a21.55,21.55,0,0,1-2.59.15,15.9,15.9,0,0,1-1.76-.09c-1.35-.19-2.72-.87-2.72-2.14,0-.6.22-2,3.69-3.28-.11-1-.58-1.22-1.18-1.22a4.82,4.82,0,0,0-3.14,1.66c-.22.27-.47.61-.68.87s-.15.21-.23.21-.09,0-.16-.09a1.59,1.59,0,0,0-.68-.3q-.12,0-.12-.12a.44.44,0,0,1,.16-.26,20.35,20.35,0,0,0,3.24-4.27h-.46c-.53,0-2,0-2.38.08h0c-.08,0-.1,0-.1-.1a.44.44,0,0,1,0-.1.54.54,0,0,0,0-.19.43.43,0,0,0,0-.17.61.61,0,0,1,0-.13s0-.07.09-.07h0c.42.06,1.71.09,2.4.09h.76a12.55,12.55,0,0,0,.6-1.3c.06-.13.11-.2.19-.2a.38.38,0,0,1,.15.07,2.08,2.08,0,0,0,.65.13c.12,0,.15,0,.15.1a8.48,8.48,0,0,1-.58,1.2h2.15c.75,0,1.91-.06,2.24-.1h0a.07.07,0,0,1,.08.08.61.61,0,0,1,0,.13,1,1,0,0,0,0,.18.86.86,0,0,0,0,.17.61.61,0,0,1,0,.11c0,.06,0,.1-.09.1h0c-.32,0-1.74-.08-2.38-.08H191.4s-1,1.5-1.79,2.6a4.36,4.36,0,0,1,2.61-.92A1.7,1.7,0,0,1,194,5.78c.62-.2,1.22-.37,1.75-.49s1.07-.29,1.69-.47h.07c.08,0,.1.05.12.16a.7.7,0,0,0,.18.39.15.15,0,0,1,0,.11s0,.09-.13.1a23.45,23.45,0,0,0-3.67.8v0c0,.35,0,.86,0,1.36,0,1.13,0,1.13-.13,1.13h-.13a1.79,1.79,0,0,0-.65.17l-.13,0C193,9.11,193,9,193,9V8.89c.08-.73.11-1.66.12-2.17-1.93.75-2.94,1.67-2.94,2.54,0,.25.08,1.41,3.08,1.41a18.27,18.27,0,0,0,3.45-.36h.06c.07,0,.11,0,.11.08a.93.93,0,0,1,0,.1,1.84,1.84,0,0,0-.17.66Z"/><path class="cls-1" d="M208.94,12.09s-.07,0-.11-.11a9.1,9.1,0,0,0-2.67-2.82.08.08,0,0,1,0-.07.44.44,0,0,1,.34-.35c.19,0,3.33,1.89,3.33,2.27,0,0,0,.09-.12.16a2.29,2.29,0,0,0-.6.8C209,12.05,209,12.09,208.94,12.09Z"/><path class="cls-1" d="M222.44,12c0,.07,0,.12-.09.12l-.14,0-.32,0-.33,0-.14,0c-.07,0-.08,0-.08-.13v-.08c0-.35,0-1.75,0-2.34V4.83a9.48,9.48,0,0,1-1.57,1.91c-.11,0-.32-.17-.32-.29s0,0,0,0A14.71,14.71,0,0,0,222.2.23c0-.1,0-.14.1-.14a.41.41,0,0,1,.16,0,1.63,1.63,0,0,0,.59.09h.35c.09,0,.13,0,.13.11a15.19,15.19,0,0,1-1.14,2.79V9.65c0,.58,0,1.92.05,2.28Zm9.24-.41c-.33,0-1.92-.07-2.61-.07h-3.32c-.7,0-2.15,0-2.54.07h0c-.09,0-.1,0-.1-.09a.41.41,0,0,1,0-.11.65.65,0,0,0,0-.17.9.9,0,0,0,0-.16.93.93,0,0,1,0-.13s0-.08.12-.08h0c.43.05,1.83.09,2.57.09h1V7.12H226c-.69,0-1.84,0-2.23.07h0c-.09,0-.11,0-.11-.08a.25.25,0,0,1,0-.1.78.78,0,0,0,0-.22.37.37,0,0,0,0-.15.52.52,0,0,1,0-.11s0-.08.09-.08h0c.42,0,1.53.09,2.26.09h.73V3.43h-.88c-.69,0-2,0-2.39.07h-.05c-.06,0-.09,0-.09-.08a.53.53,0,0,1,0-.12.79.79,0,0,0,0-.17.52.52,0,0,0,0-.14,1,1,0,0,1,0-.14c0-.05,0-.08.09-.08h.05c.42,0,1.69.08,2.41.08h3c.73,0,2.11-.05,2.46-.09h0c.07,0,.09,0,.09.08a.43.43,0,0,1,0,.14.58.58,0,0,0,0,.15.71.71,0,0,0,0,.16.31.31,0,0,1,0,.13.08.08,0,0,1-.09.08h0c-.32,0-1.76-.07-2.45-.07h-1V6.54h.8c.73,0,2,0,2.34-.09h0c.07,0,.09,0,.09.08a.58.58,0,0,1,0,.1.47.47,0,0,0,0,.17.5.5,0,0,0,0,.19.52.52,0,0,1,0,.11.08.08,0,0,1-.09.09h0c-.32,0-1.63-.07-2.32-.07h-.81V11h1.19c.72,0,2.27,0,2.64-.09h0c.06,0,.08,0,.08.06a.79.79,0,0,1,0,.13.88.88,0,0,0,0,.17.7.7,0,0,0,0,.16.5.5,0,0,1,0,.13c0,.05,0,.09-.11.09Zm-2.76-9.95c0,.05,0,.11-.13.17a1.61,1.61,0,0,0-.6.76c0,.08-.07.1-.11.1a.18.18,0,0,1-.13-.06,9.13,9.13,0,0,0-2.87-2,.06.06,0,0,1,0-.06c0-.12.15-.35.26-.35a16.72,16.72,0,0,1,3.49,1.26A.14.14,0,0,1,228.92,1.66Z"/><path class="cls-1" d="M249.88,5.75c-.32,0-1.67-.08-2.32-.08h-1.37c0,.9,0,1.8,0,2.54a9.68,9.68,0,0,1,4,2.37c0,.05,0,.09-.11.16a1,1,0,0,0-.35.44c0,.1-.08.15-.13.15s-.08,0-.13-.09a7,7,0,0,0-3.29-2.33,2.76,2.76,0,0,1-3,2.64c-1.66,0-3-.73-3-2,0-1.57,2.17-1.84,3-1.84a9.08,9.08,0,0,1,1.88.18c0-.66,0-1.45,0-2.26H242.9c-.53,0-1.92,0-2.32.08h0c-.07,0-.1,0-.1-.08a.23.23,0,0,1,0-.11,1.25,1.25,0,0,0,0-.21.78.78,0,0,0,0-.19.38.38,0,0,1,0-.13c0-.06,0-.08.1-.08h0c.43,0,1.63.1,2.33.1h2.18V3h-2.54c-.53,0-1.92,0-2.32.08h0a.09.09,0,0,1-.1-.09.19.19,0,0,1,0-.1,1.15,1.15,0,0,0,0-.21.84.84,0,0,0,0-.19.31.31,0,0,1,0-.13s0-.08.09-.08h0c.43.05,1.63.09,2.33.09h2.53V2.25c0-.54,0-1.12,0-1.42,0-.07,0-.1,0-.14s0-.08.13-.08h.05a4.38,4.38,0,0,0,.8-.1l.09,0c.08,0,.08.08.08.19,0,.26,0,1,0,1.48v.22h1.74c.73,0,1.84-.06,2.17-.1h0a.08.08,0,0,1,.09.07.27.27,0,0,1,0,.12.9.9,0,0,0,0,.18,1.54,1.54,0,0,0,0,.24.19.19,0,0,1,0,.1c0,.06,0,.1-.11.1h0c-.32,0-1.67-.08-2.32-.08h-1.58c0,.61,0,1.33,0,2.05h1.52c.73,0,1.86-.08,2.19-.12h0A.08.08,0,0,1,250,5a.27.27,0,0,1,0,.12,1.22,1.22,0,0,0,0,.21,1.21,1.21,0,0,0,0,.2.26.26,0,0,1,0,.11.09.09,0,0,1-.1.1Zm-6.64,2.58c-.65,0-2.15.22-2.15,1.14s1.1,1.15,2,1.15a1.93,1.93,0,0,0,2-2A8,8,0,0,0,243.24,8.33Z"/><path class="cls-1" d="M259.66,1.79a2.3,2.3,0,0,0,.65-.12l.12,0c.07,0,.1,0,.1.11s0,.05,0,.09A20.89,20.89,0,0,0,260.28,5c0,3.71,1,5.09,1.73,5.09s1.32-1,2-2.7c0,0,.07-.05.12-.05s.44.12.44.27-1,3.75-2.68,3.75c-1,0-2.74-1.36-2.74-6.68a26.06,26.06,0,0,1,.15-2.7c0-.1,0-.2.18-.2Zm10.12,7.37a2.41,2.41,0,0,0-.78.34.38.38,0,0,1-.18.07c-.08,0-.09-.09-.1-.23-.13-2.32-1-5.36-2.45-7a.07.07,0,0,1,0,0c0-.11.26-.26.44-.26a.21.21,0,0,1,.14,0A11.92,11.92,0,0,1,270,9C270,9.08,270,9.13,269.78,9.16Z"/><path class="cls-1" d="M280.91,1.36a36.78,36.78,0,0,0-.6,6.55,22.91,22.91,0,0,0,.18,3.1s0,.07,0,.1,0,.13-.15.13h-.29a2.21,2.21,0,0,0-.48,0h-.12c-.1,0-.13-.06-.14-.24-.07-.85-.09-1.7-.09-2.56a48.84,48.84,0,0,1,.54-7.07c0-.11,0-.15.12-.15h.23a2.7,2.7,0,0,0,.58-.09h.11c.06,0,.09,0,.09.12Zm2.58,5.69a2.18,2.18,0,0,0-.24,1c0,.61.46,1.79,3.47,1.79a15.42,15.42,0,0,0,2.74-.32l.14,0s0,0,0,0a.29.29,0,0,1,0,.14,6.56,6.56,0,0,0-.29.81c0,.2,0,.25-.29.29a19.81,19.81,0,0,1-2.21.16c-2.91,0-4.24-1.17-4.24-2.64,0-.42.22-1.47.53-1.47s.38.12.38.21ZM289,3c-.33,0-1.31-.08-2-.08h-2c-.53,0-1.54,0-1.95.08h0c-.08,0-.1,0-.1-.08a.52.52,0,0,1,0-.11.94.94,0,0,0,0-.2.84.84,0,0,0,0-.19.59.59,0,0,1,0-.13s0-.08.09-.08h0c.43,0,1.26.09,2,.09h2c.72,0,1.62,0,2-.09h0c.06,0,.09,0,.09.08a.93.93,0,0,1,0,.13.87.87,0,0,0,0,.18,1.21,1.21,0,0,0,0,.2.53.53,0,0,1,0,.12s0,.08-.1.08Z"/><path class="cls-1" d="M303.55,3.8c0,2.74-.33,6.32-4.84,7.69h0c-.2,0-.37-.26-.37-.4a.09.09,0,0,1,.06-.1c3.21-1.29,3.95-3.79,3.95-6.76V3.83c0-.16,0-.22.15-.22h.12a2.18,2.18,0,0,0,.72-.14.56.56,0,0,1,.15,0c.06,0,.11,0,.11.2Zm1,3.1c-.13,0-.27-.26-.27-.41s0-.09,0-.1a5.47,5.47,0,0,0,3.19-4.33h-5.32c-.52,0-3.22.05-3.72.09h0c-.08,0-.1,0-.1-.09a.58.58,0,0,1,0-.1.52.52,0,0,0,0-.18.69.69,0,0,0,0-.22.59.59,0,0,1,0-.13c0-.05,0-.08.1-.08h0c.53,0,3.24.09,3.74.09h3.82c.37,0,2.09-.05,2.75-.1h0c.09,0,.12.06.12.17s0,.28,0,.42a6.09,6.09,0,0,1-4.35,5Z"/><path class="cls-1" d="M324.05,11.57c0,.09,0,.13-.09.13l-.16,0a1,1,0,0,0-.32,0,2.21,2.21,0,0,0-.43,0l-.13,0c-.06,0-.08,0-.08-.12V11.5c0-.39.06-1.75.06-2.23V5.32a17.1,17.1,0,0,1-5.29,2.18c-.15,0-.29-.23-.29-.39A.13.13,0,0,1,317.4,7,16.14,16.14,0,0,0,326,1a.18.18,0,0,1,.15-.1.17.17,0,0,1,.11.05,2.31,2.31,0,0,0,.92.23c.11,0,.16.07.16.12A12,12,0,0,1,324,4.6V9.26c0,.43,0,1.82.05,2.24Z"/><path class="cls-1" d="M345.9,11.26c0,.11,0,.18-.2.2a21.73,21.73,0,0,1-2.6.15,15.9,15.9,0,0,1-1.76-.09c-1.34-.19-2.72-.87-2.72-2.14,0-.6.22-2,3.69-3.28-.11-1-.58-1.22-1.17-1.22A4.82,4.82,0,0,0,338,6.54c-.22.27-.47.61-.67.87s-.16.21-.24.21-.09,0-.15-.09a1.69,1.69,0,0,0-.69-.3q-.12,0-.12-.12a.44.44,0,0,1,.16-.26,20.35,20.35,0,0,0,3.24-4.27h-.46c-.53,0-2,0-2.38.08h0a.09.09,0,0,1-.1-.1.22.22,0,0,1,0-.1,1,1,0,0,0,0-.19.79.79,0,0,0,0-.17.33.33,0,0,1,0-.13s0-.07.09-.07h0c.42.06,1.71.09,2.41.09h.75c.22-.44.44-.86.61-1.3.05-.13.1-.2.18-.2a.33.33,0,0,1,.15.07,2.08,2.08,0,0,0,.65.13c.12,0,.16,0,.16.1A7.84,7.84,0,0,1,341,2h2.15c.75,0,1.91-.06,2.24-.1h0c.07,0,.08,0,.08.08a.31.31,0,0,1,0,.13,1,1,0,0,0,0,.18.86.86,0,0,0,0,.17.26.26,0,0,1,0,.11c0,.06,0,.1-.09.1h0c-.32,0-1.73-.08-2.38-.08h-2.35s-.95,1.5-1.78,2.6a4.32,4.32,0,0,1,2.6-.92,1.7,1.7,0,0,1,1.8,1.52c.62-.2,1.22-.37,1.75-.49s1.07-.29,1.7-.47h.06c.08,0,.1.05.12.16a.7.7,0,0,0,.18.39.15.15,0,0,1,.05.11s0,.09-.13.1a22.92,22.92,0,0,0-3.66.8v0c0,.35,0,.86,0,1.36,0,1.13,0,1.13-.13,1.13h-.13a1.85,1.85,0,0,0-.65.17l-.13,0c-.07,0-.09-.07-.09-.15V8.89c.08-.73.11-1.66.12-2.17-1.93.75-2.94,1.67-2.94,2.54,0,.25.08,1.41,3.08,1.41a18.27,18.27,0,0,0,3.45-.36H346c.07,0,.11,0,.11.08a.93.93,0,0,1,0,.1,1.84,1.84,0,0,0-.17.66Z"/><path class="cls-1" d="M.15,39.56H5L24.38,14.11,43.75,39.56h4.86L24.38,7.73Zm63.54,0h3.86V9.49H63.69Z"/><polygon class="cls-1" points="1.25 48.54 1.25 50.89 3.48 48.54 5.04 48.54 2.82 50.78 5.25 54.22 3.68 54.22 1.97 51.67 1.25 52.39 1.25 54.22 0 54.22 0 48.54 1.25 48.54"/><path class="cls-1" d="M9.68,50.22a2.89,2.89,0,0,1,.55-.95,2.47,2.47,0,0,1,.88-.64,3.14,3.14,0,0,1,2.36,0,2.52,2.52,0,0,1,.87.64,2.89,2.89,0,0,1,.55.95,3.52,3.52,0,0,1,.19,1.18,3.32,3.32,0,0,1-.19,1.16,2.74,2.74,0,0,1-.55.94,2.63,2.63,0,0,1-.87.63,3.27,3.27,0,0,1-2.36,0,2.57,2.57,0,0,1-.88-.63,2.74,2.74,0,0,1-.55-.94,3.32,3.32,0,0,1-.19-1.16,3.52,3.52,0,0,1,.19-1.18m1.14,1.88a2,2,0,0,0,.27.61,1.45,1.45,0,0,0,.48.44,1.58,1.58,0,0,0,.71.16,1.56,1.56,0,0,0,.72-.16,1.36,1.36,0,0,0,.48-.44,2,2,0,0,0,.27-.61,3.27,3.27,0,0,0,.09-.7,3.46,3.46,0,0,0-.09-.72,2,2,0,0,0-.27-.62,1.2,1.2,0,0,0-.48-.44,1.45,1.45,0,0,0-.72-.17,1.46,1.46,0,0,0-.71.17,1.26,1.26,0,0,0-.48.44,2,2,0,0,0-.27.62,3.45,3.45,0,0,0-.08.72,3.27,3.27,0,0,0,.08.7"/><path class="cls-1" d="M24.1,53.79a2.59,2.59,0,0,1-1.78.56,2.56,2.56,0,0,1-1.79-.56,2.17,2.17,0,0,1-.63-1.72V48.54h1.25v3.53a2.32,2.32,0,0,0,0,.46.9.9,0,0,0,.16.39.89.89,0,0,0,.35.28,1.38,1.38,0,0,0,.62.11,1.17,1.17,0,0,0,.92-.3,1.43,1.43,0,0,0,.26-.94V48.54h1.25v3.53a2.17,2.17,0,0,1-.65,1.72"/><polygon class="cls-1" points="31.57 48.54 32.9 52.44 32.91 52.44 34.17 48.54 35.93 48.54 35.93 54.22 34.76 54.22 34.76 50.19 34.75 50.19 33.35 54.22 32.38 54.22 31 50.23 30.97 50.23 30.97 54.22 29.81 54.22 29.81 48.54 31.57 48.54"/><path class="cls-1" d="M45.2,53.79a3.14,3.14,0,0,1-3.58,0A2.17,2.17,0,0,1,41,52.07V48.54h1.25v3.53a3.42,3.42,0,0,0,0,.46.91.91,0,0,0,.17.39.89.89,0,0,0,.35.28,1.33,1.33,0,0,0,.61.11,1.18,1.18,0,0,0,.93-.3,1.43,1.43,0,0,0,.25-.94V48.54h1.25v3.53a2.17,2.17,0,0,1-.64,1.72"/><polygon class="cls-1" points="50.46 49.58 50.46 48.54 55.12 48.54 55.12 49.58 53.41 49.58 53.41 54.22 52.16 54.22 52.16 49.58 50.46 49.58"/><polygon class="cls-1" points="64.01 48.54 64.01 49.58 61 49.58 61 50.81 63.76 50.81 63.76 51.78 61 51.78 61 53.18 64.07 53.18 64.07 54.22 59.75 54.22 59.75 48.54 64.01 48.54"/><polygon class="cls-1" points="70.15 48.54 72.52 52.35 72.53 52.35 72.53 48.54 73.7 48.54 73.7 54.22 72.45 54.22 70.08 50.41 70.07 50.41 70.07 54.22 68.9 54.22 68.9 48.54 70.15 48.54"/></g></g></svg>