<svg xmlns="http://www.w3.org/2000/svg" viewBox="0 0 62.33 62.33"><defs><style>.cls-1{fill:#fff;}</style></defs><g id="レイヤー_2" data-name="レイヤー 2"><g id="レイヤー_2-2" data-name="レイヤー 2"><path class="cls-1" d="M31.17,5.62c8.32,0,9.3,0,12.59.18a17.24,17.24,0,0,1,5.79,1.07A9.74,9.74,0,0,1,53.13,9.2a9.57,9.57,0,0,1,2.33,3.59,17,17,0,0,1,1.08,5.78c.15,3.29.18,4.27.18,12.6s0,9.3-.18,12.59a17.17,17.17,0,0,1-1.08,5.79,10.32,10.32,0,0,1-5.91,5.91,17.17,17.17,0,0,1-5.79,1.08c-3.29.15-4.27.18-12.59.18s-9.31,0-12.6-.18a17,17,0,0,1-5.78-1.08A9.57,9.57,0,0,1,9.2,53.13a9.74,9.74,0,0,1-2.33-3.58A17.24,17.24,0,0,1,5.8,43.76c-.15-3.29-.18-4.27-.18-12.59s0-9.31.18-12.6a17.11,17.11,0,0,1,1.07-5.78A9.7,9.7,0,0,1,9.2,9.2a9.7,9.7,0,0,1,3.59-2.33A17.11,17.11,0,0,1,18.57,5.8c3.29-.15,4.27-.18,12.6-.18m0-5.62C22.7,0,21.64,0,18.32.19a22.85,22.85,0,0,0-7.57,1.45A15.19,15.19,0,0,0,5.23,5.23a15.19,15.19,0,0,0-3.59,5.52A22.85,22.85,0,0,0,.19,18.32C0,21.64,0,22.7,0,31.17S0,40.69.19,44a22.84,22.84,0,0,0,1.45,7.56A15.19,15.19,0,0,0,5.23,57.1a15.35,15.35,0,0,0,5.52,3.6,23.11,23.11,0,0,0,7.57,1.45c3.32.15,4.38.18,12.85.18s9.52,0,12.85-.18a23.1,23.1,0,0,0,7.56-1.45,16,16,0,0,0,9.12-9.12A23.1,23.1,0,0,0,62.15,44c.15-3.33.18-4.39.18-12.85s0-9.53-.18-12.85a23.11,23.11,0,0,0-1.45-7.57,15.35,15.35,0,0,0-3.6-5.52,15.19,15.19,0,0,0-5.52-3.59A22.84,22.84,0,0,0,44,.19C40.69,0,39.63,0,31.17,0Z"/><path class="cls-1" d="M31.17,15.16a16,16,0,1,0,16,16A16,16,0,0,0,31.17,15.16Zm0,26.4A10.39,10.39,0,1,1,41.56,31.17,10.39,10.39,0,0,1,31.17,41.56Z"/><circle class="cls-1" cx="47.8" cy="14.53" r="3.74"/></g></g></svg>